<svg xmlns="http://www.w3.org/2000/svg" viewBox="0 0 512 512" width="512" height="512"><defs><clipPath id="in"><path d="M194 104 L318 104 L309 426 L203 426 Z"/></clipPath><linearGradient id="liq" x1="0" y1="0" x2="1" y2="0"><stop offset="0" stop-color="#e2b46a"/><stop offset=".6" stop-color="#dca44a"/><stop offset="1" stop-color="#c19041"/></linearGradient></defs><rect width="512" height="512" fill="#e0d5c3"/><circle cx="256" cy="262" r="214" fill="#e9e6e1"/><ellipse cx="256" cy="452" rx="128" ry="14" fill="#35181a" fill-opacity=".14"/><path d="M184 96 L328 96 L318 440 Q256 450 194 440 Z" fill="#ffffff" fill-opacity=".38"/><g clip-path="url(#in)"><rect x="0" y="140" width="512" height="400" fill="url(#liq)"/><rect x="0" y="140" width="512" height="7" fill="#e9c68e"/><rect x="229.0" y="173.0" width="54" height="54" rx="9.719999999999999" transform="rotate(0 256 200)" fill="#ffffff" fill-opacity=".55" stroke="#ffffff" stroke-opacity=".9" stroke-width="3"/><path d="M239.8 191.9 L250.6 182.72" stroke="#ffffff" stroke-width="4" stroke-linecap="round" transform="rotate(0 256 200)"/><rect x="229.0" y="243.0" width="54" height="54" rx="9.719999999999999" transform="rotate(0 256 270)" fill="#ffffff" fill-opacity=".55" stroke="#ffffff" stroke-opacity=".9" stroke-width="3"/><path d="M239.8 261.9 L250.6 252.72" stroke="#ffffff" stroke-width="4" stroke-linecap="round" transform="rotate(0 256 270)"/><rect x="229.0" y="313.0" width="54" height="54" rx="9.719999999999999" transform="rotate(0 256 340)" fill="#ffffff" fill-opacity=".55" stroke="#ffffff" stroke-opacity=".9" stroke-width="3"/><path d="M239.8 331.9 L250.6 322.72" stroke="#ffffff" stroke-width="4" stroke-linecap="round" transform="rotate(0 256 340)"/><circle cx="225" cy="410" r="3.4" fill="none" stroke="#ffffff" stroke-opacity=".85" stroke-width="2.5"/><circle cx="279" cy="173" r="3.7" fill="none" stroke="#ffffff" stroke-opacity=".85" stroke-width="2.5"/><circle cx="312" cy="207" r="4.9" fill="none" stroke="#ffffff" stroke-opacity=".85" stroke-width="2.5"/><circle cx="251" cy="272" r="4.5" fill="none" stroke="#ffffff" stroke-opacity=".85" stroke-width="2.5"/><circle cx="222" cy="374" r="3.3" fill="none" stroke="#ffffff" stroke-opacity=".85" stroke-width="2.5"/><circle cx="226" cy="155" r="3.8" fill="none" stroke="#ffffff" stroke-opacity=".85" stroke-width="2.5"/><circle cx="246" cy="394" r="4.1" fill="none" stroke="#ffffff" stroke-opacity=".85" stroke-width="2.5"/><circle cx="213" cy="220" r="6.0" fill="none" stroke="#ffffff" stroke-opacity=".85" stroke-width="2.5"/><circle cx="207" cy="317" r="4.1" fill="none" stroke="#ffffff" stroke-opacity=".85" stroke-width="2.5"/><circle cx="274" cy="241" r="5.1" fill="none" stroke="#ffffff" stroke-opacity=".85" stroke-width="2.5"/><circle cx="256" cy="325" r="5.7" fill="none" stroke="#ffffff" stroke-opacity=".85" stroke-width="2.5"/><circle cx="265" cy="188" r="3.2" fill="none" stroke="#ffffff" stroke-opacity=".85" stroke-width="2.5"/><circle cx="306" cy="282" r="3.6" fill="none" stroke="#ffffff" stroke-opacity=".85" stroke-width="2.5"/><circle cx="306" cy="306" r="5.2" fill="none" stroke="#ffffff" stroke-opacity=".85" stroke-width="2.5"/><circle cx="299" cy="227" r="4.1" fill="none" stroke="#ffffff" stroke-opacity=".85" stroke-width="2.5"/><circle cx="298" cy="186" r="5.3" fill="none" stroke="#ffffff" stroke-opacity=".85" stroke-width="2.5"/><circle cx="211" cy="336" r="5.1" fill="none" stroke="#ffffff" stroke-opacity=".85" stroke-width="2.5"/><circle cx="306" cy="378" r="4.5" fill="none" stroke="#ffffff" stroke-opacity=".85" stroke-width="2.5"/><circle cx="222" cy="191" r="4.6" fill="none" stroke="#ffffff" stroke-opacity=".85" stroke-width="2.5"/><circle cx="257" cy="169" r="5.7" fill="none" stroke="#ffffff" stroke-opacity=".85" stroke-width="2.5"/><circle cx="257" cy="339" r="3.7" fill="none" stroke="#ffffff" stroke-opacity=".85" stroke-width="2.5"/><circle cx="227" cy="153" r="4.0" fill="none" stroke="#ffffff" stroke-opacity=".85" stroke-width="2.5"/></g><path d="M184 96 L328 96 L318 440 Q256 450 194 440 Z" fill="none" stroke="#231f1c" stroke-width="7" stroke-linejoin="round"/><path d="M206 122 L210 216" stroke="#ffffff" stroke-width="9" stroke-linecap="round" opacity=".75"/><path d="M258 106 q16 -34 34 -14 q16 22 34 -10" fill="none" stroke="#231f1c" stroke-width="16" stroke-linecap="round"/><path d="M258 106 q16 -34 34 -14 q16 22 34 -10" fill="none" stroke="#e8c21c" stroke-width="9" stroke-linecap="round"/></svg>