<svg xmlns="http://www.w3.org/2000/svg" viewBox="0 0 512 512" width="512" height="512"><defs><clipPath id="in"><path d="M182 128 L330 128 L323 196 Q317 250 311 426 L201 426 Q195 250 189 196 Z"/></clipPath><linearGradient id="liq" x1="0" y1="0" x2="1" y2="0"><stop offset="0" stop-color="#ce7450"/><stop offset=".6" stop-color="#c4562a"/><stop offset="1" stop-color="#ac4b24"/></linearGradient></defs><rect width="512" height="512" fill="#e0d5c3"/><circle cx="256" cy="262" r="214" fill="#e9e6e1"/><ellipse cx="256" cy="452" rx="128" ry="14" fill="#35181a" fill-opacity=".14"/><path d="M172 120 L340 120 L333 196 Q326 250 320 440 Q256 450 192 440 Q186 250 179 196 Z" fill="#ffffff" fill-opacity=".38"/><g clip-path="url(#in)"><rect x="0" y="150" width="512" height="400" fill="url(#liq)"/><rect x="0" y="150" width="512" height="7" fill="#da967a"/><rect x="207.0" y="185.0" width="50" height="50" rx="9.0" transform="rotate(-10 232 210)" fill="#ffffff" fill-opacity=".55" stroke="#ffffff" stroke-opacity=".9" stroke-width="3"/><path d="M217.0 202.5 L227.0 194.0" stroke="#ffffff" stroke-width="4" stroke-linecap="round" transform="rotate(-10 232 210)"/><rect x="260.0" y="216.0" width="48" height="48" rx="8.64" transform="rotate(12 284 240)" fill="#ffffff" fill-opacity=".55" stroke="#ffffff" stroke-opacity=".9" stroke-width="3"/><path d="M269.6 232.8 L279.2 224.64" stroke="#ffffff" stroke-width="4" stroke-linecap="round" transform="rotate(12 284 240)"/><circle cx="305" cy="345" r="5.3" fill="none" stroke="#ffffff" stroke-opacity=".85" stroke-width="2.5"/><circle cx="305" cy="242" r="4.9" fill="none" stroke="#ffffff" stroke-opacity=".85" stroke-width="2.5"/><circle cx="305" cy="389" r="4.7" fill="none" stroke="#ffffff" stroke-opacity=".85" stroke-width="2.5"/><circle cx="216" cy="279" r="6.0" fill="none" stroke="#ffffff" stroke-opacity=".85" stroke-width="2.5"/><circle cx="208" cy="257" r="5.9" fill="none" stroke="#ffffff" stroke-opacity=".85" stroke-width="2.5"/><circle cx="250" cy="230" r="4.0" fill="none" stroke="#ffffff" stroke-opacity=".85" stroke-width="2.5"/><circle cx="305" cy="261" r="4.3" fill="none" stroke="#ffffff" stroke-opacity=".85" stroke-width="2.5"/><circle cx="271" cy="373" r="4.5" fill="none" stroke="#ffffff" stroke-opacity=".85" stroke-width="2.5"/><circle cx="206" cy="318" r="3.1" fill="none" stroke="#ffffff" stroke-opacity=".85" stroke-width="2.5"/><circle cx="207" cy="226" r="5.1" fill="none" stroke="#ffffff" stroke-opacity=".85" stroke-width="2.5"/><circle cx="230" cy="346" r="3.5" fill="none" stroke="#ffffff" stroke-opacity=".85" stroke-width="2.5"/><circle cx="210" cy="186" r="5.1" fill="none" stroke="#ffffff" stroke-opacity=".85" stroke-width="2.5"/><circle cx="299" cy="233" r="3.7" fill="none" stroke="#ffffff" stroke-opacity=".85" stroke-width="2.5"/><circle cx="198" cy="335" r="3.9" fill="none" stroke="#ffffff" stroke-opacity=".85" stroke-width="2.5"/></g><path d="M172 120 L340 120 L333 196 Q326 250 320 440 Q256 450 192 440 Q186 250 179 196 Z" fill="none" stroke="#231f1c" stroke-width="7" stroke-linejoin="round"/><path d="M194 146 L198 240" stroke="#ffffff" stroke-width="9" stroke-linecap="round" opacity=".75"/><path d="M172 120 L340 120" stroke="#fdfbf5" stroke-width="16" stroke-linecap="round"/><rect x="200" y="121" width="5" height="5" fill="#ffffff" stroke="#231f1c" stroke-width=".8"/><rect x="252" y="124" width="5" height="5" fill="#c8401f" stroke="#231f1c" stroke-width=".8"/><rect x="308" y="119" width="5" height="5" fill="#ffffff" stroke="#231f1c" stroke-width=".8"/><rect x="212" y="117" width="5" height="5" fill="#c8401f" stroke="#231f1c" stroke-width=".8"/><rect x="270" y="124" width="5" height="5" fill="#c8401f" stroke="#231f1c" stroke-width=".8"/><rect x="211" y="111" width="5" height="5" fill="#c8401f" stroke="#231f1c" stroke-width=".8"/><rect x="340" y="126" width="5" height="5" fill="#ffffff" stroke="#231f1c" stroke-width=".8"/><rect x="275" y="116" width="5" height="5" fill="#c8401f" stroke="#231f1c" stroke-width=".8"/><rect x="256" y="127" width="5" height="5" fill="#c8401f" stroke="#231f1c" stroke-width=".8"/><rect x="234" y="125" width="5" height="5" fill="#c8401f" stroke="#231f1c" stroke-width=".8"/><rect x="193" y="118" width="5" height="5" fill="#ffffff" stroke="#231f1c" stroke-width=".8"/><rect x="265" y="119" width="5" height="5" fill="#c8401f" stroke="#231f1c" stroke-width=".8"/><rect x="203" y="126" width="5" height="5" fill="#c8401f" stroke="#231f1c" stroke-width=".8"/><rect x="211" y="114" width="5" height="5" fill="#ffffff" stroke="#231f1c" stroke-width=".8"/><rect x="335" y="124" width="5" height="5" fill="#ffffff" stroke="#231f1c" stroke-width=".8"/><rect x="300" y="123" width="5" height="5" fill="#ffffff" stroke="#231f1c" stroke-width=".8"/><rect x="193" y="125" width="5" height="5" fill="#ffffff" stroke="#231f1c" stroke-width=".8"/><rect x="206" y="126" width="5" height="5" fill="#ffffff" stroke="#231f1c" stroke-width=".8"/><rect x="241" y="118" width="5" height="5" fill="#c8401f" stroke="#231f1c" stroke-width=".8"/><rect x="237" y="117" width="5" height="5" fill="#ffffff" stroke="#231f1c" stroke-width=".8"/><rect x="177" y="123" width="5" height="5" fill="#c8401f" stroke="#231f1c" stroke-width=".8"/><rect x="339" y="119" width="5" height="5" fill="#ffffff" stroke="#231f1c" stroke-width=".8"/><rect x="264" y="114" width="5" height="5" fill="#ffffff" stroke="#231f1c" stroke-width=".8"/><rect x="274" y="121" width="5" height="5" fill="#ffffff" stroke="#231f1c" stroke-width=".8"/><rect x="202" y="116" width="5" height="5" fill="#c8401f" stroke="#231f1c" stroke-width=".8"/><rect x="328" y="121" width="5" height="5" fill="#c8401f" stroke="#231f1c" stroke-width=".8"/><rect x="224" y="111" width="5" height="5" fill="#c8401f" stroke="#231f1c" stroke-width=".8"/><rect x="309" y="117" width="5" height="5" fill="#ffffff" stroke="#231f1c" stroke-width=".8"/><circle cx="336" cy="124" r="38" fill="#3f8a2c" stroke="#231f1c" stroke-width="6"/><circle cx="336" cy="124" r="31.159999999999997" fill="#fbf6e6"/><circle cx="336" cy="124" r="28.12" fill="#a9d36a"/><line x1="336" y1="124" x2="364.1" y2="124.0" stroke="#fbf6e6" stroke-width="3"/><line x1="336" y1="124" x2="355.9" y2="143.9" stroke="#fbf6e6" stroke-width="3"/><line x1="336" y1="124" x2="336.0" y2="152.1" stroke="#fbf6e6" stroke-width="3"/><line x1="336" y1="124" x2="316.1" y2="143.9" stroke="#fbf6e6" stroke-width="3"/><line x1="336" y1="124" x2="307.9" y2="124.0" stroke="#fbf6e6" stroke-width="3"/><line x1="336" y1="124" x2="316.1" y2="104.1" stroke="#fbf6e6" stroke-width="3"/><line x1="336" y1="124" x2="336.0" y2="95.9" stroke="#fbf6e6" stroke-width="3"/><line x1="336" y1="124" x2="355.9" y2="104.1" stroke="#fbf6e6" stroke-width="3"/><circle cx="336" cy="124" r="3.8000000000000003" fill="#fbf6e6"/></svg>