<svg xmlns="http://www.w3.org/2000/svg" viewBox="0 0 512 512" width="512" height="512"><defs><clipPath id="in"><path d="M190 136 L322 136 L312 426 L200 426 Z"/></clipPath><linearGradient id="liq" x1="0" y1="0" x2="1" y2="0"><stop offset="0" stop-color="#bc475d"/><stop offset=".6" stop-color="#ae1f3a"/><stop offset="1" stop-color="#991b33"/></linearGradient></defs><rect width="512" height="512" fill="#e0d5c3"/><circle cx="256" cy="262" r="214" fill="#e9e6e1"/><ellipse cx="256" cy="452" rx="128" ry="14" fill="#35181a" fill-opacity=".14"/><path d="M180 128 L332 128 L321 440 Q256 450 191 440 Z" fill="#ffffff" fill-opacity=".38"/><g clip-path="url(#in)"><rect x="0" y="176" width="512" height="400" fill="url(#liq)"/><rect x="0" y="176" width="512" height="7" fill="#cc7484"/><rect x="202.0" y="188.0" width="52" height="52" rx="9.36" transform="rotate(-10 228 214)" fill="#ffffff" fill-opacity=".55" stroke="#ffffff" stroke-opacity=".9" stroke-width="3"/><path d="M212.4 206.2 L222.8 197.36" stroke="#ffffff" stroke-width="4" stroke-linecap="round" transform="rotate(-10 228 214)"/><rect x="259.0" y="207.0" width="50" height="50" rx="9.0" transform="rotate(14 284 232)" fill="#ffffff" fill-opacity=".55" stroke="#ffffff" stroke-opacity=".9" stroke-width="3"/><path d="M269.0 224.5 L279.0 216.0" stroke="#ffffff" stroke-width="4" stroke-linecap="round" transform="rotate(14 284 232)"/><rect x="215.0" y="265.0" width="50" height="50" rx="9.0" transform="rotate(6 240 290)" fill="#ffffff" fill-opacity=".55" stroke="#ffffff" stroke-opacity=".9" stroke-width="3"/><path d="M225.0 282.5 L235.0 274.0" stroke="#ffffff" stroke-width="4" stroke-linecap="round" transform="rotate(6 240 290)"/><rect x="267.0" y="307.0" width="46" height="46" rx="8.28" transform="rotate(-12 290 330)" fill="#ffffff" fill-opacity=".55" stroke="#ffffff" stroke-opacity=".9" stroke-width="3"/><path d="M276.2 323.1 L285.4 315.28" stroke="#ffffff" stroke-width="4" stroke-linecap="round" transform="rotate(-12 290 330)"/><circle cx="307" cy="222" r="3.1" fill="none" stroke="#ffffff" stroke-opacity=".85" stroke-width="2.5"/><circle cx="312" cy="232" r="3.4" fill="none" stroke="#ffffff" stroke-opacity=".85" stroke-width="2.5"/><circle cx="273" cy="269" r="5.7" fill="none" stroke="#ffffff" stroke-opacity=".85" stroke-width="2.5"/><circle cx="226" cy="411" r="4.0" fill="none" stroke="#ffffff" stroke-opacity=".85" stroke-width="2.5"/><circle cx="267" cy="404" r="5.1" fill="none" stroke="#ffffff" stroke-opacity=".85" stroke-width="2.5"/><circle cx="303" cy="353" r="3.1" fill="none" stroke="#ffffff" stroke-opacity=".85" stroke-width="2.5"/><circle cx="299" cy="326" r="3.9" fill="none" stroke="#ffffff" stroke-opacity=".85" stroke-width="2.5"/><circle cx="221" cy="385" r="4.7" fill="none" stroke="#ffffff" stroke-opacity=".85" stroke-width="2.5"/><circle cx="305" cy="368" r="5.9" fill="none" stroke="#ffffff" stroke-opacity=".85" stroke-width="2.5"/><circle cx="263" cy="351" r="4.8" fill="none" stroke="#ffffff" stroke-opacity=".85" stroke-width="2.5"/><circle cx="229" cy="410" r="3.9" fill="none" stroke="#ffffff" stroke-opacity=".85" stroke-width="2.5"/><circle cx="287" cy="410" r="5.0" fill="none" stroke="#ffffff" stroke-opacity=".85" stroke-width="2.5"/><circle cx="216" cy="380" r="5.0" fill="none" stroke="#ffffff" stroke-opacity=".85" stroke-width="2.5"/><circle cx="221" cy="201" r="4.6" fill="none" stroke="#ffffff" stroke-opacity=".85" stroke-width="2.5"/><circle cx="204" cy="403" r="4.5" fill="none" stroke="#ffffff" stroke-opacity=".85" stroke-width="2.5"/><circle cx="258" cy="284" r="5.0" fill="none" stroke="#ffffff" stroke-opacity=".85" stroke-width="2.5"/></g><path d="M180 128 L332 128 L321 440 Q256 450 191 440 Z" fill="none" stroke="#231f1c" stroke-width="7" stroke-linejoin="round"/><path d="M202 154 L206 248" stroke="#ffffff" stroke-width="9" stroke-linecap="round" opacity=".75"/><circle cx="328" cy="132" r="40" fill="#3f8a2c" stroke="#231f1c" stroke-width="6"/><circle cx="328" cy="132" r="32.8" fill="#fbf6e6"/><circle cx="328" cy="132" r="29.6" fill="#a9d36a"/><line x1="328" y1="132" x2="357.6" y2="132.0" stroke="#fbf6e6" stroke-width="3"/><line x1="328" y1="132" x2="348.9" y2="152.9" stroke="#fbf6e6" stroke-width="3"/><line x1="328" y1="132" x2="328.0" y2="161.6" stroke="#fbf6e6" stroke-width="3"/><line x1="328" y1="132" x2="307.1" y2="152.9" stroke="#fbf6e6" stroke-width="3"/><line x1="328" y1="132" x2="298.4" y2="132.0" stroke="#fbf6e6" stroke-width="3"/><line x1="328" y1="132" x2="307.1" y2="111.1" stroke="#fbf6e6" stroke-width="3"/><line x1="328" y1="132" x2="328.0" y2="102.4" stroke="#fbf6e6" stroke-width="3"/><line x1="328" y1="132" x2="348.9" y2="111.1" stroke="#fbf6e6" stroke-width="3"/><circle cx="328" cy="132" r="4.0" fill="#fbf6e6"/></svg>