<svg xmlns="http://www.w3.org/2000/svg" viewBox="0 0 512 512" width="512" height="512"><defs><clipPath id="in"><path d="M157 158 Q142 332 256 338 Q370 332 355 158 Z"/></clipPath><linearGradient id="liq" gradientUnits="userSpaceOnUse" x1="0" y1="196" x2="0" y2="345"><stop offset="0" stop-color="#f1f3e8"/><stop offset=".35" stop-color="#f1f3e8"/><stop offset=".7" stop-color="#f4c34a"/><stop offset="1" stop-color="#f4c34a"/></linearGradient></defs><rect width="512" height="512" fill="#e0d5c3"/><circle cx="256" cy="262" r="214" fill="#e9e6e1"/><ellipse cx="256" cy="452" rx="128" ry="14" fill="#35181a" fill-opacity=".14"/><path d="M249 350 L249 428 L263 428 L263 350 Z" fill="#ffffff" fill-opacity=".35" stroke="#231f1c" stroke-width="7" stroke-linejoin="round"/><ellipse cx="256" cy="436" rx="76" ry="13" fill="#ffffff" fill-opacity=".35" stroke="#231f1c" stroke-width="7"/><path d="M146 150 Q128 344 256 350 Q384 344 366 150 Z" fill="#ffffff" fill-opacity=".38"/><g clip-path="url(#in)"><rect x="0" y="196" width="512" height="400" fill="url(#liq)"/><rect x="0" y="196" width="512" height="7" fill="#f8d98e"/><rect x="187.0" y="225.0" width="50" height="50" rx="9.0" transform="rotate(-12 212 250)" fill="#ffffff" fill-opacity=".55" stroke="#ffffff" stroke-opacity=".9" stroke-width="3"/><path d="M197.0 242.5 L207.0 234.0" stroke="#ffffff" stroke-width="4" stroke-linecap="round" transform="rotate(-12 212 250)"/><rect x="264.0" y="220.0" width="52" height="52" rx="9.36" transform="rotate(14 290 246)" fill="#ffffff" fill-opacity=".55" stroke="#ffffff" stroke-opacity=".9" stroke-width="3"/><path d="M274.4 238.2 L284.8 229.36" stroke="#ffffff" stroke-width="4" stroke-linecap="round" transform="rotate(14 290 246)"/><rect x="226.0" y="276.0" width="48" height="48" rx="8.64" transform="rotate(6 250 300)" fill="#ffffff" fill-opacity=".55" stroke="#ffffff" stroke-opacity=".9" stroke-width="3"/><path d="M235.6 292.8 L245.2 284.64" stroke="#ffffff" stroke-width="4" stroke-linecap="round" transform="rotate(6 250 300)"/><circle cx="338" cy="324" r="5.7" fill="none" stroke="#ffffff" stroke-opacity=".85" stroke-width="2.5"/><circle cx="176" cy="281" r="4.3" fill="none" stroke="#ffffff" stroke-opacity=".85" stroke-width="2.5"/><circle cx="262" cy="226" r="3.6" fill="none" stroke="#ffffff" stroke-opacity=".85" stroke-width="2.5"/><circle cx="245" cy="237" r="4.4" fill="none" stroke="#ffffff" stroke-opacity=".85" stroke-width="2.5"/><circle cx="165" cy="220" r="5.1" fill="none" stroke="#ffffff" stroke-opacity=".85" stroke-width="2.5"/><circle cx="241" cy="272" r="5.2" fill="none" stroke="#ffffff" stroke-opacity=".85" stroke-width="2.5"/><circle cx="229" cy="217" r="5.3" fill="none" stroke="#ffffff" stroke-opacity=".85" stroke-width="2.5"/><circle cx="273" cy="289" r="4.9" fill="none" stroke="#ffffff" stroke-opacity=".85" stroke-width="2.5"/><circle cx="346" cy="254" r="5.3" fill="none" stroke="#ffffff" stroke-opacity=".85" stroke-width="2.5"/><circle cx="231" cy="279" r="5.0" fill="none" stroke="#ffffff" stroke-opacity=".85" stroke-width="2.5"/><circle cx="220" cy="220" r="4.4" fill="none" stroke="#ffffff" stroke-opacity=".85" stroke-width="2.5"/><circle cx="298" cy="281" r="4.3" fill="none" stroke="#ffffff" stroke-opacity=".85" stroke-width="2.5"/><circle cx="283" cy="232" r="3.5" fill="none" stroke="#ffffff" stroke-opacity=".85" stroke-width="2.5"/><circle cx="222" cy="308" r="3.6" fill="none" stroke="#ffffff" stroke-opacity=".85" stroke-width="2.5"/><circle cx="182" cy="222" r="3.1" fill="none" stroke="#ffffff" stroke-opacity=".85" stroke-width="2.5"/><circle cx="213" cy="279" r="5.5" fill="none" stroke="#ffffff" stroke-opacity=".85" stroke-width="2.5"/><circle cx="224" cy="254" r="3.9" fill="none" stroke="#ffffff" stroke-opacity=".85" stroke-width="2.5"/><circle cx="219" cy="303" r="4.6" fill="none" stroke="#ffffff" stroke-opacity=".85" stroke-width="2.5"/></g><path d="M146 150 Q128 344 256 350 Q384 344 366 150 Z" fill="none" stroke="#231f1c" stroke-width="7" stroke-linejoin="round"/><path d="M168 176 L172 270" stroke="#ffffff" stroke-width="9" stroke-linecap="round" opacity=".75"/><path d="M290 300 L340 92" stroke="#5d6b3a" stroke-width="6" stroke-linecap="round"/><path d="M296 277 l-18 -10" stroke="#4f7a4a" stroke-width="7" stroke-linecap="round"/><path d="M296 277 l18 -10" stroke="#4f7a4a" stroke-width="7" stroke-linecap="round"/><path d="M301 254 l-18 -10" stroke="#4f7a4a" stroke-width="7" stroke-linecap="round"/><path d="M301 254 l18 -10" stroke="#4f7a4a" stroke-width="7" stroke-linecap="round"/><path d="M307 231 l-18 -10" stroke="#4f7a4a" stroke-width="7" stroke-linecap="round"/><path d="M307 231 l18 -10" stroke="#4f7a4a" stroke-width="7" stroke-linecap="round"/><path d="M312 208 l-18 -10" stroke="#4f7a4a" stroke-width="7" stroke-linecap="round"/><path d="M312 208 l18 -10" stroke="#4f7a4a" stroke-width="7" stroke-linecap="round"/><path d="M318 184 l-18 -10" stroke="#4f7a4a" stroke-width="7" stroke-linecap="round"/><path d="M318 184 l18 -10" stroke="#4f7a4a" stroke-width="7" stroke-linecap="round"/><path d="M323 161 l-18 -10" stroke="#4f7a4a" stroke-width="7" stroke-linecap="round"/><path d="M323 161 l18 -10" stroke="#4f7a4a" stroke-width="7" stroke-linecap="round"/><path d="M329 138 l-18 -10" stroke="#4f7a4a" stroke-width="7" stroke-linecap="round"/><path d="M329 138 l18 -10" stroke="#4f7a4a" stroke-width="7" stroke-linecap="round"/><path d="M334 115 l-18 -10" stroke="#4f7a4a" stroke-width="7" stroke-linecap="round"/><path d="M334 115 l18 -10" stroke="#4f7a4a" stroke-width="7" stroke-linecap="round"/></svg>